<?xml version="1.0" encoding="UTF-8"?>
<svg xmlns="http://www.w3.org/2000/svg" viewBox="0 0 800 800">
  <g id="Radar">
    <path d="M400,20c51.31,0,101.07,10.04,147.91,29.85,45.25,19.14,85.89,46.54,120.79,81.45,34.9,34.91,62.31,75.55,81.45,120.79,19.81,46.84,29.85,96.6,29.85,147.91s-10.04,101.07-29.85,147.91c-19.14,45.25-46.54,85.89-81.45,120.79-34.91,34.9-75.55,62.31-120.79,81.45-46.84,19.81-96.6,29.85-147.91,29.85s-101.07-10.04-147.91-29.85c-45.25-19.14-85.89-46.54-120.79-81.45-34.9-34.91-62.31-75.55-81.45-120.79-19.81-46.84-29.85-96.6-29.85-147.91s10.04-101.07,29.85-147.91c19.14-45.25,46.54-85.89,81.45-120.79,34.91-34.9,75.55-62.31,120.79-81.45,46.84-19.81,96.6-29.85,147.91-29.85m0-20C179.09,0,0,179.09,0,400s179.09,400,400,400,400-179.09,400-400S620.91,0,400,0h0Z" fill="#1b1464"/>
    <path d="M400.16,390.31c-5.52,0-10,4.48-10,10s4.48,10,10,10,10-4.48,10-10-4.48-10-10-10h0Z" fill="#1b1464"/>
    <path d="M400,100c165.69,0,300,134.31,300,300,0,113.5-63.03,212.28-156,263.24" fill="none" stroke="#1b1464" stroke-miterlimit="10" stroke-width="20"/>
    <path d="M400,200c110.46,0,200,89.54,200,200,0,71.73-37.76,134.64-94.49,169.94" fill="none" stroke="#1b1464" stroke-miterlimit="10" stroke-width="20"/>
  </g>
  <g id="Letter_R" data-name="Letter R">
    <path d="M400.16,300.31c55.23,0,100,44.77,100,100s-44.77,100-100,100" fill="none" stroke="#f15a24" stroke-miterlimit="10" stroke-width="20"/>
    <line x1="444" y1="494" x2="529" y2="686" fill="none" stroke="#f15a24" stroke-miterlimit="10" stroke-width="20"/>
    <line x1="315" y1="679" x2="322" y2="290" fill="none" stroke="#f15a24" stroke-miterlimit="10" stroke-width="20"/>
    <line x1="400" y1="300" x2="322" y2="300" fill="none" stroke="#f15a24" stroke-miterlimit="10" stroke-width="20"/>
    <line x1="400" y1="500" x2="322" y2="500" fill="none" stroke="#f15a24" stroke-miterlimit="10" stroke-width="20"/>
  </g>
</svg>